<?xml version="1.0" encoding="utf-8"?>
<!-- Generator: Adobe Illustrator 24.1.2, SVG Export Plug-In . SVG Version: 6.00 Build 0)  -->
<svg version="1.1" id="ef672dd0-2e16-4c9d-8107-606b55e40777"
	 xmlns="http://www.w3.org/2000/svg" xmlns:xlink="http://www.w3.org/1999/xlink" x="0px" y="0px" viewBox="0 0 844.7 595.3"
	 style="enable-background:new 0 0 844.7 595.3;" xml:space="preserve">
<style type="text/css">
	.st0{fill:url(#SVGID_1_);}
	.st1{fill:#F2F2F2;}
	.st2{fill:url(#SVGID_2_);}
	.st3{fill:#3F3D56;}
	.st4{fill:#2F2E41;}
	.st5{fill:#A0616A;}
	.st6{fill:#E6E6E6;}
	.st7{fill:#FFB8B8;}
	.st8{fill:#CCCCCC;}
	.st9{fill:url(#SVGID_3_);}
	.st10{fill:url(#SVGID_4_);}
	.st11{fill:url(#SVGID_5_);}
</style>
<linearGradient id="SVGID_1_" gradientUnits="userSpaceOnUse" x1="2012.8286" y1="531.6429" x2="2012.8286" y2="22.5633" gradientTransform="matrix(1 0 0 -1 0 598)">
	<stop  offset="0" style="stop-color:#890ADC"/>
	<stop  offset="1" style="stop-color:#13AEF9"/>
</linearGradient>
<circle class="st0" cx="2012.8" cy="547.4" r="46"/>
<path class="st1" d="M2287.6,590.8c25.7-7.7,53.1-15.8,73.5-34.2c18.2-16.4,30.6-41.5,23-66.1c-7.5-24.6-30.1-41-53.4-49.1
	c-13.2-4.6-27.1-7.2-40.9-9.2c-15-2.2-30.1-4-45.2-5.7c-61.1-7-122.5-11.3-184-12.8c-30.4-0.8-60.8-0.7-91.2-0.3
	c-27.1,0.4-55.7,0.4-80.9-11.2c-19.6-9-37.3-25.3-42.8-46.7c-6.3-24.8,5.3-50,22-67.9c8.8-9.5,19-17.4,29.6-24.7
	c11.5-7.9,23.4-15.3,35.5-22.2c23.9-13.5,48.9-25.1,74.8-34.5c12.7-4.6,25.7-8.6,38.7-12.3c11-3.1,22.1-6.2,32.7-10.5
	c20.6-8.2,40.2-22.1,45.4-44.9c5-21.6-3.4-45-18.1-61.1c-17-18.6-42.5-26.7-67.1-28c-27.5-1.5-54.4,5.4-80.3,14.2
	c-27.6,9.3-54.6,20-82.8,27.6c-27.9,7.5-56.4,12.8-85.2,15.8c-14.1,1.5-28.6,3.2-42.8,2c-11.9-1-23.7-4.5-32.4-12.9
	c-7.5-7.2-12-17.2-10.4-27.6c0.3-1.9,3.2-1.1,2.9,0.8c-1.9,12.8,6.8,24.5,17.5,30.5c12.3,7,27.4,7,41.1,6.2
	c29.8-1.8,59.4-6.1,88.5-12.8c28.6-6.5,56.2-15.9,83.7-25.8c26.2-9.5,52.9-18.7,80.8-20.8c24.2-1.8,49.8,1.8,70.9,14.4
	c18.6,11.1,32.2,29.7,36.6,51c4.3,20.8-1.6,41.8-17.4,56.3c-16.3,15-38.7,21.5-59.6,27.4c-26.5,7.5-52.3,16.3-77.4,27.7
	c-25.4,11.5-49.8,25.2-72.8,40.9c-22.2,15.2-44.2,34.3-51.2,61.5c-3.3,12.6-2.7,26,2.8,38c4.9,10.6,12.9,19.5,22.3,26.4
	c22.3,16.4,50.5,19.8,77.4,20.1c30.3,0.4,60.6-0.6,90.9-0.1c61.7,1,123.3,4.8,184.8,11.3c15.4,1.6,30.8,3.4,46.2,5.4
	c13.8,1.8,27.7,3.5,41.3,6.7c24.2,5.6,47.7,16.4,62.7,36.9c6.7,8.9,10.8,19.4,11.9,30.4c1.1,11.5-1.8,23.1-7,33.3
	c-11.5,22.7-33.1,37.1-56.1,46.6c-12.3,5.1-25,8.9-37.8,12.7C2286.5,594.3,2285.8,591.4,2287.6,590.8L2287.6,590.8z"/>
<circle class="st1" cx="1707.3" cy="68.9" r="24"/>
<circle class="st1" cx="1873.8" cy="114.4" r="24"/>
<circle class="st1" cx="2014.8" cy="23.4" r="24"/>
<circle class="st1" cx="2102.8" cy="125.4" r="24"/>
<circle class="st1" cx="1983.8" cy="243.4" r="24"/>
<ellipse class="st1" cx="1832.8" cy="300.4" rx="24" ry="24"/>
<circle class="st1" cx="1992.8" cy="389.4" r="24"/>
<circle class="st1" cx="2164.8" cy="439.4" r="24"/>
<circle class="st1" cx="2365.8" cy="428.4" r="24"/>
<linearGradient id="SVGID_2_" gradientUnits="userSpaceOnUse" x1="2008.8286" y1="531.6429" x2="2008.8286" y2="22.5633" gradientTransform="matrix(1 0 0 -1 0 598)">
	<stop  offset="0" style="stop-color:#890ADC"/>
	<stop  offset="1" style="stop-color:#13AEF9"/>
</linearGradient>
<path class="st2" d="M2007.9,67.4c-71.9,0.5-130.8,58.9-131.8,130.8c0,0.7,0,5.3,0,11.4c0,18.6,15.1,33.7,33.7,33.7l0,0
	c18.6,0,33.8-15.1,33.8-33.8l0,0c0-4.2,0-7,0-7.2c0-35.3,28.6-64,64-64c35.4,0,64,28.6,64,64c0,21.8-11.1,42.1-29.5,53.9l0,0
	c0,0-48,30.9-62.7,73.3l0,0c-2.6,8.7-3.9,17.7-3.9,26.8c0,3.7,0.2,36.3,0.6,62.8c0.3,19,15.8,34.2,34.8,34.2l0,0
	c19.2,0,34.8-15.6,34.8-34.8c0-0.1,0-0.1,0-0.2c-0.1-24.2-0.2-52.4-0.2-54.5c0-26,25.1-52,45.8-68.9c23.8-19.5,40.9-46,47.7-76
	c1.5-6.2,2.4-12.5,2.5-18.8c0-73.3-59.4-132.8-132.7-132.8C2008.5,67.4,2008.2,67.4,2007.9,67.4z"/>
<path class="st3" d="M2424.9,594.7h-842.3c-0.7,0-1.2-0.5-1.2-1.2s0.5-1.2,1.2-1.2h842.3c0.7,0,1.2,0.5,1.2,1.2
	C2426.1,594.1,2425.5,594.7,2424.9,594.7z"/>
<circle class="st4" cx="2209.8" cy="242.4" r="30"/>
<polygon class="st5" points="2154.4,581.5 2142.2,581.5 2136.3,534.2 2154.4,534.2 "/>
<path class="st4" d="M2133.4,578h23.6l0,0v14.9l0,0h-38.5l0,0l0,0C2118.5,584.7,2125.2,578,2133.4,578z"/>
<polygon class="st5" points="2249.4,581.5 2237.2,581.5 2231.3,534.2 2249.4,534.2 "/>
<path class="st4" d="M2228.4,578h23.6l0,0v14.9l0,0h-38.5l0,0l0,0C2213.5,584.7,2220.2,578,2228.4,578z"/>
<circle class="st5" cx="2205.3" cy="248" r="24.6"/>
<path class="st4" d="M2219.9,351.8l11-25.3c5.5-12.1,2.7-26.4-6.9-35.6c-1-1-2-1.8-3.1-2.7c-5.4-4.2-12.1-6.6-19-6.6
	c-4.6,0-9.2,1-13.4,3c-0.4,0.2-0.7,0.3-1.1,0.5c-0.7,0.3-1.4,0.7-2,1.1c-8.7,5-14.6,13.9-15.7,23.9l-4.9,40.6
	c-1.2,3.2-44.7,118.4-29.5,206.3c0.3,1.9,1.9,3.4,3.8,3.7l15.4,2.1c2.3,0.3,4.5-1.2,5-3.5l25.9-123.4c0.4-1.9,2.3-3.1,4.1-2.7
	c1.3,0.3,2.3,1.2,2.7,2.5l36.6,129.8c0.5,1.9,2.3,3.3,4.3,3.3c0.3,0,0.6,0,0.9-0.1l18.8-3.6c2.3-0.4,3.8-2.5,3.6-4.8
	C2253.8,529.4,2239,374.6,2219.9,351.8z"/>
<path class="st5" d="M2109.8,268.4c-0.6,5.5,3.3,10.5,8.8,11.2c0.6,0.1,1.2,0.1,1.8,0l13.7,33l10.4-15.4l-14.6-29
	c-0.7-5.5-5.8-9.5-11.3-8.8C2114,260.1,2110.4,263.8,2109.8,268.4L2109.8,268.4z"/>
<path class="st5" d="M2203.9,385c5.5-0.7,9.5-5.7,8.8-11.2c-0.1-0.6-0.2-1.2-0.4-1.7l28.9-21l-17.4-6.5l-24.8,21
	c-5.2,2-7.9,7.8-5.9,13C2194.9,382.9,2199.3,385.6,2203.9,385L2203.9,385z"/>
<path class="st4" d="M2156.8,334.6c-1.1,0-2.2-0.1-3.3-0.3c-5.3-1-9.8-4.6-11.9-9.6l-19.2-23.5c-1.6-1.9-1.3-4.8,0.6-6.3
	c0.2-0.1,0.3-0.2,0.5-0.3l13.7-8.5c2.1-1.3,4.9-0.7,6.2,1.5l0,0l13.6,22.3l26-19.2c4.8-2.5,10.6-0.7,13.1,4.1
	c2,3.8,1.3,8.5-1.8,11.5l-25.9,23.6C2165.2,332.9,2161.1,334.6,2156.8,334.6z"/>
<path class="st4" d="M2227,369.9h-0.1c-1.3,0-2.5-0.6-3.3-1.6l-12.2-14.2c-1.6-1.9-1.4-4.7,0.5-6.3c0.1-0.1,0.3-0.2,0.4-0.3
	l22.8-15.2l-20.6-24.8c-2.8-4.6-1.3-10.6,3.3-13.3c3.7-2.2,8.4-1.7,11.6,1.2l25.1,24.5c6.7,6.2,7.2,16.6,1.1,23.3
	c-1.3,1.5-2.9,2.7-4.7,3.6l-20.5,21.8C2229.4,369.4,2228.2,369.9,2227,369.9z"/>
<path class="st6" d="M2199,317.6c-0.2,0-0.4,0-0.6,0c-1.7-0.2-3.2-1.4-3.7-3.1l-9.1-28c-0.5-1.5,0.2-3.1,1.6-3.7l0.3-0.1
	c0.3-0.1,0.5-0.3,0.8-0.4c4.3-2,8.9-3,13.6-3c6.1,0,12.1,1.8,17.2,5.2c1.4,0.9,1.8,2.9,0.9,4.3l-17.2,26.9
	C2202,316.8,2200.6,317.6,2199,317.6z"/>
<circle class="st4" cx="2233.5" cy="219.2" r="9.8"/>
<path class="st4" d="M2199.8,208.4L2199.8,208.4c-14.4,0-26,11.6-26,26v11h13.6l6.5-11l1.9,11h41.1l-11-11
	C2225.8,220,2214.2,208.4,2199.8,208.4z"/>
<path class="st4" d="M2238.5,212.5c2.2-7,9.2-11.4,16.5-10.4c6.3,1,11.2,6.1,14.1,11.7c2.9,5.6,4.3,11.9,6.3,17.9s4.8,12.1,9.8,16
	s12.7,5,17.6,0.9c-1.5,11-11.6,18.7-22.6,17.3c-6.3-0.8-11.8-4.6-14.9-10.1c-2.6-4.6-3.3-10-4-15.3c-0.7-5.3-1.8-10.6-4.9-14.9
	s-8.9-7.1-13.8-5.1L2238.5,212.5z"/>
<path class="st3" d="M1919.3,227.4L1919.3,227.4c-18.6,0-33.7-15.1-33.7-33.7c0-6.1,0-10.8,0-11.4c0.3-20.9,5.5-41.4,15.4-59.9
	c-16.1,22.1-25,48.6-25.4,75.9c0,0.7,0,5.3,0,11.4c0,18.6,15.1,33.7,33.7,33.7l0,0c15.1,0,28.4-10,32.5-24.6
	C1935.7,224.4,1927.6,227.4,1919.3,227.4z"/>
<path class="st3" d="M2010.2,138.5c35.3,1.7,62.6,31.7,60.9,67c-0.4,7.7-2.1,15.3-5.2,22.4c22.9-26.9,19.7-67.3-7.2-90.2
	c-26.9-22.9-67.3-19.7-90.2,7.2c-4.1,4.8-7.5,10.2-10,16C1971.2,145.8,1990.4,137.5,2010.2,138.5z"/>
<path class="st3" d="M2020.5,437.4L2020.5,437.4c-19,0-34.5-15.2-34.8-34.2c-0.4-26.5-0.6-59.1-0.6-62.8c0-9.1,1.3-18.1,3.9-26.8
	l0,0c1.5-4.4,3.4-8.6,5.5-12.7c-6.6,8.7-11.8,18.4-15.5,28.7l0,0c-2.6,8.7-3.9,17.7-3.9,26.8c0,3.7,0.2,36.3,0.6,62.8
	c0.3,19,15.8,34.2,34.8,34.2l0,0c15.5,0,29.1-10.2,33.4-25C2037.5,434.2,2029.2,437.5,2020.5,437.4z"/>
<polygon class="st7" points="1707.9,582 1720.2,582 1726,534.7 1707.9,534.7 "/>
<path class="st4" d="M1743.8,593.4h-38.5l0,0v-14.9l0,0h23.6C1737.2,578.5,1743.8,585.1,1743.8,593.4L1743.8,593.4L1743.8,593.4z"/>
<polygon class="st7" points="1663.9,582 1676.2,582 1682,534.7 1663.9,534.7 "/>
<path class="st4" d="M1699.8,593.4h-38.5l0,0v-14.9l0,0h23.6C1693.2,578.5,1699.8,585.1,1699.8,593.4L1699.8,593.4L1699.8,593.4z"/>
<path class="st4" d="M1674.7,567.4l-12-0.6c-2.6-0.1-4.6-2.3-4.4-4.9c0,0,0,0,0-0.1l14.3-158.4l65.9,17.8l6.4-1.7L1725,559.8
	c-0.3,2.2-2.2,3.8-4.4,3.9l-12.9,0.6c-2.6,0.1-4.8-1.8-4.9-4.4c0-0.1,0-0.3,0-0.4l2.3-84.2c0-0.9-0.7-1.6-1.5-1.6
	c-0.8,0-1.4,0.5-1.6,1.2l-22.6,88.8c-0.4,2.2-2.4,3.7-4.6,3.7C1674.8,567.4,1674.7,567.4,1674.7,567.4z"/>
<ellipse transform="matrix(9.853757e-02 -0.9951 0.9951 9.853757e-02 1293.6721 1926.4117)" class="st7" cx="1710.1" cy="249.2" rx="24.6" ry="24.6"/>
<path class="st8" d="M1669.2,321.3l2.7,58.3l1,21.2c0.1,1.9,1.3,3.5,3.1,4.2l63.3,22.9c0.5,0.2,1.1,0.3,1.6,0.3
	c2.6,0,4.7-2.1,4.7-4.6c0-0.1,0-0.1,0-0.2l-2.6-104.8c-0.4-17.7-13.3-32.7-30.7-35.7c-0.6-0.1-1.2-0.2-1.9-0.3
	c-10.6-1.3-21.3,2.1-29.2,9.4C1673.1,299.6,1668.7,310.3,1669.2,321.3L1669.2,321.3z"/>
<path class="st7" d="M1769.6,416.3c-5.3-1.6-8.3-7.3-6.6-12.6c0.3-0.9,0.7-1.8,1.3-2.6l-21.5-28.6l18.5-1.1l17.6,27.3
	c4.4,3.4,5.2,9.8,1.8,14.2C1778.1,416.2,1773.6,417.6,1769.6,416.3z"/>
<path class="st8" d="M1754.5,395.9c-1.1-0.5-2.1-1.4-2.5-2.5l-32.4-77.1c-2.7-6.3,0.3-13.7,6.7-16.3c6.3-2.7,13.7,0.3,16.3,6.7l0,0
	l32.4,77.1c1,2.4-0.1,5.1-2.5,6.1l-14.4,6C1756.9,396.3,1755.6,396.4,1754.5,395.9L1754.5,395.9z"/>
<path class="st3" d="M1702.2,393.2l31.1-59.5c1.2-2.4,4.2-3.3,6.6-2.1l45.1,23.6c2.4,1.2,3.3,4.2,2.1,6.6l-31.1,59.5
	c-1.2,2.4-4.2,3.3-6.6,2.1l-45.1-23.6C1701.9,398.5,1701,395.5,1702.2,393.2z"/>
<path class="st7" d="M1723.1,366c-2-5.2-7.8-7.8-13-5.9c-0.9,0.3-1.8,0.8-2.6,1.4l-29.8-19.8l-0.1,18.6l28.3,15.9
	c3.7,4.2,10.1,4.6,14.3,1C1723.5,374.4,1724.6,369.9,1723.1,366L1723.1,366z"/>
<path class="st8" d="M1685.4,370.1l-24.3-19.3c-9-3-13.8-12.7-10.8-21.7c0.7-2,1.7-3.8,3-5.4l22.1-29c3.5-4.3,9.9-5,14.2-1.4
	c3.5,2.8,4.6,7.6,2.9,11.7l-17.5,28.6l25.7,12.2c2.3,1.1,3.3,3.9,2.2,6.2c-0.1,0.2-0.2,0.3-0.3,0.5l-10.4,16.4
	c-0.7,1.1-1.9,1.9-3.2,2.1h-0.1C1687.8,371.3,1686.5,371,1685.4,370.1z"/>
<path class="st4" d="M1691.6,265.6c-0.4-1.1,0.2-2.3,1.3-2.7c0.2-0.1,0.3-0.1,0.5-0.1c1.3,0.1,2.6,0.7,3.5,1.7s1.9,1.9,3.1,2.6
	c1.2,0.6,2.8,0.5,3.5-0.6c0.6-1.1,0.2-2.5-0.2-3.8c-1-3.2-1.5-6.5-1.6-9.8c-0.1-3.7,0.4-7.6,2.5-10.4c2.6-3.7,7.4-5.1,11.8-5
	s8.9,1.5,13.3,2.4c1.5,0.3,3.3,0.5,4.4-0.7c1.1-1.3,0.7-3.3,0.2-5c-1.2-4.4-2.5-9-5.3-12.6c-3-3.7-7.3-6.1-12.1-6.8
	c-4.5-0.6-9.2,0-13.5,1.5c-7,2.2-13.2,6.5-17.7,12.3c-4.6,6.2-6.6,13.9-5.6,21.6c1,6.7,4.6,12.7,9.9,16.9L1691.6,265.6z"/>
<path class="st3" d="M2002.7,582.2c-23.3-10.1-33.9-37.2-23.8-60.5c1.7-3.9,4-7.6,6.7-11c-20.5,15-25,43.8-10,64.3s43.8,25,64.3,10
	c3.1-2.3,5.9-4.9,8.3-7.8C2035,586.8,2017.6,588.7,2002.7,582.2z"/>
<g>
	<linearGradient id="SVGID_3_" gradientUnits="userSpaceOnUse" x1="284.9059" y1="11.389" x2="284.9059" y2="567.2579">
		<stop  offset="0" style="stop-color:#A003E0"/>
		<stop  offset="0.5" style="stop-color:#6660C9"/>
		<stop  offset="1" style="stop-color:#00F1F8"/>
	</linearGradient>
	<path class="st9" d="M228.6,6.2c-11,0-19.9,9-19.9,19.9v40.4v38.5c0,11,8.9,19.9,19.9,19.9h24.5c8.8,0,15.9-7.1,15.9-15.9V82.4
		c0-8.8,7.1-15.9,15.9-15.9l0,0c8.8,0,15.9,7.1,15.9,15.9v26.6c0,8.8,7.1,15.9,15.9,15.9h24.5c11,0,19.9-8.9,19.9-19.9V66.6V26.1
		c0-11-8.9-19.9-19.9-19.9H228.6z"/>
	<linearGradient id="SVGID_4_" gradientUnits="userSpaceOnUse" x1="422.0039" y1="11.389" x2="422.0039" y2="567.2579">
		<stop  offset="0" style="stop-color:#A003E0"/>
		<stop  offset="0.5" style="stop-color:#6660C9"/>
		<stop  offset="1" style="stop-color:#00F1F8"/>
	</linearGradient>
	<path class="st10" d="M635.3,176.4c0-14.8-12-26.7-26.7-26.7H495.5c-11.7,0-22.9,4.4-31.6,12.2L293.8,316.4
		c-9.5,8.6-24.7,1.9-24.7-11v-80.1c0-8.2,6.6-14.8,14.8-14.8h2.2c8.2,0,14.8,6.6,14.8,14.8v8.7c0,13.1,15.7,19.7,25.1,10.6
		l30.7-29.7c2.9-2.8,4.5-6.6,4.5-10.6v-28.9c0-13.9-11.2-25.1-25.1-25.1h-67h-35.2c-13.9,0-25.1,11.2-25.1,25.1v35.2v151.9v65.1
		c0,18,21.3,27.6,34.8,15.5l36.1-32.3L497.4,213c2.7-2.5,6.3-3.8,9.9-3.8l0,0c13.5,0,20,16.7,9.9,25.7l-260,236l-0.1-0.2l-39.2,35.1
		c-5.9,5.3-9.4,12.9-9.4,20.9v35.5c0,12.8,15.1,19.6,24.7,11l392.3-355.4c6.1-5.5,9.6-13.3,9.6-21.5L635.3,176.4z"/>
	<linearGradient id="SVGID_5_" gradientUnits="userSpaceOnUse" x1="494.7891" y1="11.389" x2="494.7891" y2="567.2579">
		<stop  offset="0" style="stop-color:#A003E0"/>
		<stop  offset="0.5" style="stop-color:#6660C9"/>
		<stop  offset="1" style="stop-color:#00F1F8"/>
	</linearGradient>
	<path class="st11" d="M585.4,529.6L469.8,424c-7.6-7-19.3-7-27,0l-15.3,13.8c-8.8,8-8.8,21.8,0,29.8l49.8,45.1h-0.1l22.5,20.4
		c0.7,0.7,0.3,1.9-0.7,1.9H469c-7.7,0-15.1-2.9-20.7-8.1l-45.8-42c-7.6-7-19.3-7-27-0.1l-15.3,13.8c-8.8,7.9-8.8,21.7-0.1,29.7
		l59.8,55l1.2,1.1c7.5,7,17.5,10.9,27.7,10.9h74h45.5h19h34.6c13,0,19.1-16,9.4-24.7L585.4,529.6z"/>
</g>
</svg>
