<?xml version="1.0" encoding="utf-8"?>
<!-- Generator: Adobe Illustrator 24.1.2, SVG Export Plug-In . SVG Version: 6.00 Build 0)  -->
<svg version="1.1" id="_x30_3030b4a-9996-4111-83fa-29dc66776d7b"
	 xmlns="http://www.w3.org/2000/svg" xmlns:xlink="http://www.w3.org/1999/xlink" x="0px" y="0px" viewBox="0 0 1000.8 738.8"
	 style="enable-background:new 0 0 1000.8 738.8;" xml:space="preserve">
<style type="text/css">
	.st0{fill:url(#SVGID_1_);}
	.st1{fill:#FFFFFF;}
</style>
<g>
	<linearGradient id="SVGID_1_" gradientUnits="userSpaceOnUse" x1="148.4089" y1="369.415" x2="852.381" y2="369.415">
		<stop  offset="0" style="stop-color:#890ADC"/>
		<stop  offset="1" style="stop-color:#13AEF9"/>
	</linearGradient>
	<circle class="st0" cx="500.4" cy="369.4" r="352"/>
	<g>
		<g>
			<g>
				<path class="st1" d="M703,542.5H297.8c-1.9,0-3.4-1.5-3.4-3.4V234.2c0-1.9,1.5-3.4,3.4-3.4H703c1.9,0,3.4,1.5,3.4,3.4v304.9
					C706.4,541,704.8,542.5,703,542.5z M301.2,535.7h398.4V237.6H301.2V535.7z"/>
			</g>
			<g>
				<path class="st1" d="M666.6,265c-1.9,0-3.4-1.5-3.4-3.4s1.5-3.4,3.4-3.4c9.2,0,16.7-7.5,16.7-16.8v-21.6
					c0-9.2-7.5-16.8-16.7-16.8c-9.2,0-16.7,7.5-16.7,16.8v12.1c0,1.9-1.5,3.4-3.4,3.4s-3.4-1.5-3.4-3.4v-12.1
					c0-13,10.6-23.5,23.5-23.5c13,0,23.5,10.6,23.5,23.5v21.6C690.1,254.5,679.5,265,666.6,265z M611.2,265c-1.9,0-3.4-1.5-3.4-3.4
					s1.5-3.4,3.4-3.4c9.2,0,16.7-7.5,16.7-16.8v-21.6c0-9.2-7.5-16.8-16.7-16.8c-9.3,0-16.7,7.5-16.7,16.8v12.1
					c0,1.9-1.5,3.4-3.4,3.4c-1.9,0-3.4-1.5-3.4-3.4v-12.1c0-13,10.5-23.5,23.5-23.5c13,0,23.5,10.6,23.5,23.5v21.6
					C634.7,254.5,624.2,265,611.2,265z M555.8,265c-1.9,0-3.4-1.5-3.4-3.4s1.5-3.4,3.4-3.4c9.2,0,16.7-7.5,16.7-16.8v-21.6
					c0-9.2-7.5-16.8-16.7-16.8c-9.2,0-16.7,7.5-16.7,16.8v12.1c0,1.9-1.5,3.4-3.4,3.4c-1.9,0-3.4-1.5-3.4-3.4v-12.1
					c0-13,10.6-23.5,23.5-23.5c13,0,23.5,10.6,23.5,23.5v21.6C579.3,254.5,568.8,265,555.8,265z M500.4,265c-1.9,0-3.4-1.5-3.4-3.4
					s1.5-3.4,3.4-3.4c9.2,0,16.7-7.5,16.7-16.8v-21.6c0-9.2-7.5-16.8-16.7-16.8c-9.2,0-16.7,7.5-16.7,16.8v12.1
					c0,1.9-1.5,3.4-3.4,3.4s-3.4-1.5-3.4-3.4v-12.1c0-13,10.6-23.5,23.5-23.5s23.5,10.6,23.5,23.5v21.6
					C523.9,254.5,513.4,265,500.4,265z M445,265c-1.9,0-3.4-1.5-3.4-3.4s1.5-3.4,3.4-3.4c9.2,0,16.7-7.5,16.7-16.8v-21.6
					c0-9.2-7.5-16.8-16.7-16.8c-9.3,0-16.8,7.5-16.8,16.8v12.1c0,1.9-1.5,3.4-3.4,3.4c-1.9,0-3.4-1.5-3.4-3.4v-12.1
					c0-13,10.5-23.5,23.5-23.5c13,0,23.5,10.6,23.5,23.5v21.6C468.5,254.5,458,265,445,265z M389.6,265c-1.9,0-3.4-1.5-3.4-3.4
					s1.5-3.4,3.4-3.4c9.2,0,16.7-7.5,16.7-16.8v-21.6c0-9.2-7.5-16.8-16.7-16.8c-9.2,0-16.7,7.5-16.7,16.8v12.1
					c0,1.9-1.5,3.4-3.4,3.4s-3.4-1.5-3.4-3.4v-12.1c0-13,10.6-23.5,23.5-23.5c13,0,23.5,10.6,23.5,23.5v21.6
					C413.1,254.5,402.6,265,389.6,265z M334.2,265c-1.9,0-3.4-1.5-3.4-3.4s1.5-3.4,3.4-3.4c9.2,0,16.7-7.5,16.7-16.8v-21.6
					c0-9.2-7.5-16.8-16.7-16.8c-9.3,0-16.7,7.5-16.7,16.8v12.1c0,1.9-1.5,3.4-3.4,3.4c-1.9,0-3.4-1.5-3.4-3.4v-12.1
					c0-13,10.5-23.5,23.5-23.5c13,0,23.5,10.6,23.5,23.5v21.6C357.7,254.5,347.2,265,334.2,265z"/>
			</g>
			<g>
				<path class="st1" d="M703,306.1H297.8c-1.9,0-3.4-1.5-3.4-3.4s1.5-3.4,3.4-3.4H703c1.9,0,3.4,1.5,3.4,3.4S704.8,306.1,703,306.1
					z"/>
			</g>
			<g>
				<path class="st1" d="M661.3,500.8H551.1c-1.9,0-3.4-1.5-3.4-3.4V385c0-1.9,1.5-3.4,3.4-3.4h110.2c1.9,0,3.4,1.5,3.4,3.4v112.4
					C664.7,499.3,663.2,500.8,661.3,500.8z M554.5,494H658V388.4H554.5V494z"/>
			</g>
			<g>
				<path class="st1" d="M606.4,475c-1.9,0-3.9-0.2-5.8-0.5c-8.9-1.5-16.6-6.4-21.8-13.7c-5.2-7.4-7.2-16.3-5.7-25.2
					c3.1-18.3,20.7-30.7,39-27.6c1.8,0.3,3.1,2.1,2.8,3.9c-0.3,1.8-2,3.1-3.9,2.8c-14.7-2.5-28.7,7.4-31.2,22.1
					c-1.2,7.1,0.4,14.2,4.6,20.1c4.2,5.9,10.4,9.8,17.5,11c7.1,1.2,14.2-0.4,20.1-4.5c5.9-4.2,9.8-10.4,11-17.5
					c0.3-1.9,2-3.1,3.9-2.8c1.8,0.3,3.1,2.1,2.8,3.9c-1.5,8.9-6.4,16.7-13.8,21.9C620,472.8,613.3,475,606.4,475z"/>
			</g>
			<g>
				<path class="st1" d="M606.3,448.9c-0.9,0-1.8-0.4-2.5-1.1L592.5,436c-1.3-1.4-1.2-3.5,0.1-4.8c1.3-1.3,3.5-1.2,4.8,0.1l9.1,9.6
					l33.5-27.8c1.4-1.2,3.6-1,4.8,0.4c1.2,1.4,1,3.6-0.4,4.8l-36,29.8C607.8,448.7,607,448.9,606.3,448.9z"/>
			</g>
			<g>
				<path class="st1" d="M362.6,361.7h-30.9c-1.9,0-3.4-1.5-3.4-3.4v-30.9c0-1.9,1.5-3.4,3.4-3.4h30.9c1.9,0,3.4,1.5,3.4,3.4v30.9
					C366,360.2,364.5,361.7,362.6,361.7z M335.1,354.9h24.1v-24.2h-24.1V354.9z"/>
			</g>
			<g>
				<path class="st1" d="M413.3,361.7h-30.9c-1.9,0-3.4-1.5-3.4-3.4v-30.9c0-1.9,1.5-3.4,3.4-3.4h30.9c1.9,0,3.4,1.5,3.4,3.4v30.9
					C416.7,360.2,415.1,361.7,413.3,361.7z M385.7,354.9h24.2v-24.2h-24.2V354.9z"/>
			</g>
			<g>
				<path class="st1" d="M463.9,361.7h-30.9c-1.9,0-3.4-1.5-3.4-3.4v-30.9c0-1.9,1.5-3.4,3.4-3.4h30.9c1.9,0,3.4,1.5,3.4,3.4v30.9
					C467.2,360.2,465.7,361.7,463.9,361.7z M436.3,354.9h24.2v-24.2h-24.2V354.9z"/>
			</g>
			<g>
				<path class="st1" d="M514.5,361.7h-30.9c-1.9,0-3.4-1.5-3.4-3.4v-30.9c0-1.9,1.5-3.4,3.4-3.4h30.9c1.9,0,3.4,1.5,3.4,3.4v30.9
					C517.9,360.2,516.3,361.7,514.5,361.7z M486.9,354.9h24.1v-24.2h-24.1V354.9z"/>
			</g>
			<g>
				<path class="st1" d="M362.6,414h-30.9c-1.9,0-3.4-1.5-3.4-3.4v-30.9c0-1.9,1.5-3.4,3.4-3.4h30.9c1.9,0,3.4,1.5,3.4,3.4v30.9
					C366,412.4,364.5,414,362.6,414z M335.1,407.2h24.1V383h-24.1V407.2z"/>
			</g>
			<g>
				<path class="st1" d="M413.3,414h-30.9c-1.9,0-3.4-1.5-3.4-3.4v-30.9c0-1.9,1.5-3.4,3.4-3.4h30.9c1.9,0,3.4,1.5,3.4,3.4v30.9
					C416.7,412.4,415.1,414,413.3,414z M385.7,407.2h24.2V383h-24.2V407.2z"/>
			</g>
			<g>
				<path class="st1" d="M463.9,414h-30.9c-1.9,0-3.4-1.5-3.4-3.4v-30.9c0-1.9,1.5-3.4,3.4-3.4h30.9c1.9,0,3.4,1.5,3.4,3.4v30.9
					C467.2,412.4,465.7,414,463.9,414z M436.3,407.2h24.2V383h-24.2V407.2z"/>
			</g>
			<g>
				<path class="st1" d="M514.5,414h-30.9c-1.9,0-3.4-1.5-3.4-3.4v-30.9c0-1.9,1.5-3.4,3.4-3.4h30.9c1.9,0,3.4,1.5,3.4,3.4v30.9
					C517.9,412.4,516.3,414,514.5,414z M486.9,407.2h24.1V383h-24.1V407.2z"/>
			</g>
			<g>
				<path class="st1" d="M362.6,466.2h-30.9c-1.9,0-3.4-1.5-3.4-3.4v-30.9c0-1.9,1.5-3.4,3.4-3.4h30.9c1.9,0,3.4,1.5,3.4,3.4v30.9
					C366,464.7,364.5,466.2,362.6,466.2z M335.1,459.5h24.1v-24.2h-24.1V459.5z"/>
			</g>
			<g>
				<path class="st1" d="M413.3,466.2h-30.9c-1.9,0-3.4-1.5-3.4-3.4v-30.9c0-1.9,1.5-3.4,3.4-3.4h30.9c1.9,0,3.4,1.5,3.4,3.4v30.9
					C416.7,464.7,415.1,466.2,413.3,466.2z M385.7,459.5h24.2v-24.2h-24.2V459.5z"/>
			</g>
			<g>
				<path class="st1" d="M463.9,466.2h-30.9c-1.9,0-3.4-1.5-3.4-3.4v-30.9c0-1.9,1.5-3.4,3.4-3.4h30.9c1.9,0,3.4,1.5,3.4,3.4v30.9
					C467.2,464.7,465.7,466.2,463.9,466.2z M436.3,459.5h24.2v-24.2h-24.2V459.5z"/>
			</g>
			<g>
				<path class="st1" d="M514.5,466.2h-30.9c-1.9,0-3.4-1.5-3.4-3.4v-30.9c0-1.9,1.5-3.4,3.4-3.4h30.9c1.9,0,3.4,1.5,3.4,3.4v30.9
					C517.9,464.7,516.3,466.2,514.5,466.2z M486.9,459.5h24.1v-24.2h-24.1V459.5z"/>
			</g>
			<g>
				<path class="st1" d="M362.6,518.5h-30.9c-1.9,0-3.4-1.5-3.4-3.4v-30.9c0-1.9,1.5-3.4,3.4-3.4h30.9c1.9,0,3.4,1.5,3.4,3.4v30.9
					C366,517,364.5,518.5,362.6,518.5z M335.1,511.8h24.1v-24.1h-24.1V511.8z"/>
			</g>
			<g>
				<path class="st1" d="M413.3,518.5h-30.9c-1.9,0-3.4-1.5-3.4-3.4v-30.9c0-1.9,1.5-3.4,3.4-3.4h30.9c1.9,0,3.4,1.5,3.4,3.4v30.9
					C416.7,517,415.1,518.5,413.3,518.5z M385.7,511.8h24.2v-24.1h-24.2V511.8z"/>
			</g>
			<g>
				<path class="st1" d="M463.9,518.5h-30.9c-1.9,0-3.4-1.5-3.4-3.4v-30.9c0-1.9,1.5-3.4,3.4-3.4h30.9c1.9,0,3.4,1.5,3.4,3.4v30.9
					C467.2,517,465.7,518.5,463.9,518.5z M436.3,511.8h24.2v-24.1h-24.2V511.8z"/>
			</g>
			<g>
				<path class="st1" d="M514.5,518.5h-30.9c-1.9,0-3.4-1.5-3.4-3.4v-30.9c0-1.9,1.5-3.4,3.4-3.4h30.9c1.9,0,3.4,1.5,3.4,3.4v30.9
					C517.9,517,516.3,518.5,514.5,518.5z M486.9,511.8h24.1v-24.1h-24.1V511.8z"/>
			</g>
		</g>
	</g>
</g>
</svg>
