<?xml version="1.0" encoding="utf-8"?>
<!-- Generator: Adobe Illustrator 24.1.2, SVG Export Plug-In . SVG Version: 6.00 Build 0)  -->
<svg version="1.1" id="_x30_3030b4a-9996-4111-83fa-29dc66776d7b"
	 xmlns="http://www.w3.org/2000/svg" xmlns:xlink="http://www.w3.org/1999/xlink" x="0px" y="0px" viewBox="0 0 1000.8 738.8"
	 style="enable-background:new 0 0 1000.8 738.8;" xml:space="preserve">
<style type="text/css">
	.st0{fill:url(#SVGID_1_);}
	.st1{fill:#FFFFFF;}
</style>
<g>
	<linearGradient id="SVGID_1_" gradientUnits="userSpaceOnUse" x1="148.0506" y1="369.5653" x2="852.7394" y2="369.5653">
		<stop  offset="0" style="stop-color:#890ADC"/>
		<stop  offset="1" style="stop-color:#13AEF9"/>
	</linearGradient>
	<circle class="st0" cx="500.4" cy="369.6" r="352.3"/>
	<g>
		<g>
			<g>
				<path class="st1" d="M501.3,572.3c-113.3,0-205.6-92.2-205.6-205.6c0-113.3,92.2-205.6,205.6-205.6
					c113.4,0,205.6,92.2,205.6,205.6C706.9,480.1,614.7,572.3,501.3,572.3z M501.3,169.6c-108.7,0-197.2,88.5-197.2,197.2
					c0,108.7,88.4,197.2,197.2,197.2c108.7,0,197.2-88.4,197.2-197.2C698.5,258,610.1,169.6,501.3,169.6z"/>
			</g>
			<g>
				<path class="st1" d="M501.3,509.6c-78.8,0-142.8-64.1-142.8-142.9c0-78.8,64.1-142.9,142.8-142.9c78.8,0,142.8,64.1,142.8,142.9
					C644.2,445.5,580.1,509.6,501.3,509.6z M501.3,232.3c-74.1,0-134.4,60.3-134.4,134.5c0,74.2,60.3,134.5,134.4,134.5
					c74.1,0,134.4-60.3,134.4-134.5C635.8,292.6,575.5,232.3,501.3,232.3z"/>
			</g>
			<g>
				<path class="st1" d="M501.3,424c-31.6,0-57.3-25.7-57.3-57.3c0-31.6,25.7-57.3,57.3-57.3c31.6,0,57.3,25.7,57.3,57.3
					C558.6,398.3,532.9,424,501.3,424z M501.3,317.9c-26.9,0-48.9,21.9-48.9,48.9c0,27,21.9,48.9,48.9,48.9
					c26.9,0,48.9-21.9,48.9-48.9C550.2,339.8,528.3,317.9,501.3,317.9z"/>
			</g>
			<g>
				<path class="st1" d="M501.4,232.3c-2.3,0-4.2-1.9-4.2-4.2V120.4c0-2.3,1.9-4.2,4.2-4.2c2.3,0,4.2,1.9,4.2,4.2v107.7
					C505.6,230.4,503.7,232.3,501.4,232.3z"/>
			</g>
			<g>
				<path class="st1" d="M751.5,371H640c-2.3,0-4.2-1.9-4.2-4.2c0-2.3,1.9-4.2,4.2-4.2h111.5c2.3,0,4.2,1.9,4.2,4.2
					C755.7,369.1,753.8,371,751.5,371z"/>
			</g>
			<g>
				<path class="st1" d="M501.3,623c-2.3,0-4.2-1.9-4.2-4.2v-114c0-2.3,1.9-4.2,4.2-4.2c2.3,0,4.2,1.9,4.2,4.2v114
					C505.5,621.1,503.7,623,501.3,623z"/>
			</g>
			<g>
				<path class="st1" d="M362.7,371H249.3c-2.3,0-4.2-1.9-4.2-4.2c0-2.3,1.9-4.2,4.2-4.2h113.4c2.3,0,4.2,1.9,4.2,4.2
					C366.9,369.1,365,371,362.7,371z"/>
			</g>
			<g>
				<path class="st1" d="M501.3,391.2c-13.5,0-24.5-11-24.5-24.5c0-13.5,11-24.5,24.5-24.5c13.5,0,24.5,11,24.5,24.5
					C525.9,380.3,514.9,391.2,501.3,391.2z M501.3,350.7c-8.9,0-16.1,7.2-16.1,16.1c0,8.9,7.2,16.1,16.1,16.1
					c8.9,0,16.1-7.2,16.1-16.1C517.5,357.9,510.2,350.7,501.3,350.7z"/>
			</g>
		</g>
	</g>
</g>
</svg>
