<?xml version="1.0" encoding="utf-8"?>
<!-- Generator: Adobe Illustrator 24.1.2, SVG Export Plug-In . SVG Version: 6.00 Build 0)  -->
<svg version="1.1" id="_x30_3030b4a-9996-4111-83fa-29dc66776d7b"
	 xmlns="http://www.w3.org/2000/svg" xmlns:xlink="http://www.w3.org/1999/xlink" x="0px" y="0px" viewBox="0 0 1000.8 738.8"
	 style="enable-background:new 0 0 1000.8 738.8;" xml:space="preserve">
<style type="text/css">
	.st0{fill:url(#SVGID_1_);}
	.st1{fill:#FFFFFF;}
</style>
<g>
	<linearGradient id="SVGID_1_" gradientUnits="userSpaceOnUse" x1="147.79" y1="369.415" x2="853" y2="369.415">
		<stop  offset="0" style="stop-color:#890ADC"/>
		<stop  offset="1" style="stop-color:#13AEF9"/>
	</linearGradient>
	<circle class="st0" cx="500.4" cy="369.4" r="352.6"/>
	<g>
		<g>
			<g>
				<path class="st1" d="M320.6,432.9c-0.6,0-1.2-0.2-1.7-0.5c-0.8-0.4-1.3-1.2-1.6-2.1l-23.1-86.3c-0.5-1.8,0.6-3.7,2.4-4.2
					l35.5-9.5c0.9-0.2,1.8-0.1,2.6,0.3c0.8,0.4,1.3,1.2,1.6,2.1l23.1,86.3c0.5,1.8-0.6,3.7-2.4,4.2l-35.5,9.5
					C321.1,432.9,320.9,432.9,320.6,432.9z M301.6,345.6l21.3,79.8l28.9-7.7l-21.3-79.8L301.6,345.6z"/>
			</g>
			<g>
				<path class="st1" d="M534.8,419.5c0,0-0.1,0-0.1,0c0,0-0.1,0-0.1,0l-180.9-4.6c-1.5,0-2.8-1.1-3.2-2.5l-18.6-69.3
					c-0.4-1.5,0.2-3,1.5-3.8l154.4-94.4c1.1-0.7,2.5-0.7,3.6,0c1.1,0.7,1.7,1.9,1.6,3.2c-2.5,25.5,0.6,56.3,8.8,86.6
					c8.1,30.2,20.6,58.1,35.3,78.8c0.7,0.6,1.1,1.5,1.1,2.5C538.2,418,536.6,419.5,534.8,419.5z M356.4,408.2l171.7,4.3
					c-13.7-20.7-25.3-47.5-33-76.1c-7.7-28.6-11-57.5-9.5-82.4l-146.5,89.6L356.4,408.2z"/>
			</g>
			<g>
				<path class="st1" d="M585.7,454.7L585.7,454.7c-32.8,0-71.1-51-89.3-118.6c-20.2-75.1-8.9-141.2,25.6-150.5c2.6-0.7,5.3-1,8.1-1
					c32.8,0,71.2,51,89.3,118.6c20.2,75.1,8.9,141.2-25.5,150.5C591.2,454.4,588.4,454.7,585.7,454.7z M530.1,191.4
					c-2.2,0-4.3,0.3-6.3,0.8c-29.8,8-39.3,73.1-20.8,142.2C520,398.1,556.4,448,585.7,448l0,0c2.2,0,4.3-0.3,6.4-0.8
					c29.8-8,39.3-73.1,20.8-142.2C595.8,241.3,559.4,191.4,530.1,191.4z"/>
			</g>
			<g>
				<path class="st1" d="M608.7,443.1c-0.4,0-0.8-0.1-1.2-0.2c-29.9-11-60.6-57.7-76.2-116.1c-15.6-58.4-12.4-114.2,8-138.7
					c0.9-1.1,2.4-1.5,3.8-1c29.9,11,60.6,57.7,76.2,116.2c15.7,58.5,12.5,114.2-8,138.7C610.7,442.7,609.7,443.1,608.7,443.1z
					 M543,194.3c-17.4,23.7-19.6,76.8-5.1,130.7c14.5,54,42.9,98.8,69.8,110.6c17.4-23.6,19.6-76.6,5.1-130.7
					C598.3,250.9,569.9,206.1,543,194.3z"/>
			</g>
			<g>
				<path class="st1" d="M539.1,344.7c-1.5,0-2.8-0.9-3.2-2.4c-1.8-5.7-3.3-10.8-4.6-15.6c-1.4-5-2.6-10.2-3.8-15.8
					c-0.3-1.5,0.5-3.1,1.9-3.8c4.1-1.9,8.3-3.4,12.5-4.5c6.7-1.8,13.5-2.8,19.7-2.8c13.6,0,23,4.5,25,12c1.6,5.8-1.5,12.2-8.6,18
					c-6.3,5.2-15.4,9.6-25.6,12.4c-4.7,1.2-9.1,2-13.1,2.4C539.4,344.7,539.2,344.7,539.1,344.7z M534.8,312.3c1,4.4,2,8.6,3.1,12.7
					c1,3.9,2.2,8,3.7,12.6c2.9-0.4,6-1,9.3-1.9c9.2-2.5,17.4-6.4,23-11c4.8-4,7.1-8,6.3-11c-1.1-4.2-8.5-7-18.4-7
					c-5.6,0-11.8,0.9-18,2.5C540.7,310.1,537.7,311.1,534.8,312.3z"/>
			</g>
			<g>
				<path class="st1" d="M440.5,534.5c-1.2,0-2.4-0.6-3-1.8l-65.7-119.1c-0.6-1.1-0.6-2.4,0.1-3.4c0.7-1,1.8-1.6,3-1.6l40.3,2
					c1.2,0.1,2.2,0.7,2.8,1.7l57.5,103.3c0.5,0.8,0.6,1.8,0.2,2.8c-0.3,0.9-1,1.6-1.9,2l-32.1,13.7
					C441.4,534.4,440.9,534.5,440.5,534.5z M380.7,415.8l61.2,111l25.8-11L413,417.4L380.7,415.8z"/>
			</g>
			<g>
				<path class="st1" d="M373.4,372.5c-1.5,0-2.9-1-3.3-2.5c-0.5-1.8,0.6-3.7,2.4-4.2l106.2-28.5c1.8-0.5,3.7,0.6,4.2,2.4
					c0.5,1.8-0.6,3.7-2.4,4.2l-106.2,28.5C373.9,372.5,373.7,372.5,373.4,372.5z"/>
			</g>
			<g>
				<path class="st1" d="M659.7,287.8c-1.5,0-2.9-1-3.3-2.5c-0.5-1.8,0.6-3.7,2.4-4.2l35.1-9.4c1.8-0.5,3.7,0.6,4.2,2.4
					c0.5,1.8-0.6,3.7-2.4,4.2l-35.1,9.4C660.3,287.8,660,287.8,659.7,287.8z"/>
			</g>
			<g>
				<path class="st1" d="M703.3,330.9H667c-1.9,0-3.4-1.5-3.4-3.4c0-1.9,1.5-3.4,3.4-3.4h36.3c1.9,0,3.4,1.5,3.4,3.4
					C706.7,329.4,705.2,330.9,703.3,330.9z"/>
			</g>
			<g>
				<path class="st1" d="M697.9,383.8c-0.3,0-0.6,0-0.9-0.1l-35-9.4c-1.8-0.5-2.9-2.3-2.4-4.2c0.5-1.8,2.4-2.9,4.2-2.4l35,9.4
					c1.8,0.5,2.9,2.3,2.4,4.2C700.8,382.8,699.4,383.8,697.9,383.8z"/>
			</g>
			<g>
				<path class="st1" d="M613.8,214.4c-0.9,0-1.7-0.3-2.4-1c-1.3-1.3-1.3-3.5,0-4.8l25.7-25.7c1.3-1.3,3.5-1.3,4.8,0
					c1.3,1.3,1.3,3.5,0,4.8l-25.7,25.7C615.6,214,614.7,214.4,613.8,214.4z"/>
			</g>
			<g>
				<path class="st1" d="M641.6,248.1c-1.2,0-2.3-0.6-2.9-1.7c-0.9-1.6-0.4-3.7,1.2-4.6l31.5-18.1c1.6-0.9,3.7-0.4,4.6,1.2
					c0.9,1.6,0.4,3.7-1.2,4.6l-31.5,18.1C642.8,247.9,642.2,248.1,641.6,248.1z"/>
			</g>
			<g>
				<path class="st1" d="M604.2,539H313.7c-1.9,0-3.4-1.5-3.4-3.4c0-1.9,1.5-3.4,3.4-3.4h290.6c1.9,0,3.4,1.5,3.4,3.4
					C607.6,537.5,606.1,539,604.2,539z"/>
			</g>
			<g>
				<path class="st1" d="M667.8,556.9H377.3c-1.9,0-3.4-1.5-3.4-3.4c0-1.9,1.5-3.4,3.4-3.4h290.5c1.9,0,3.4,1.5,3.4,3.4
					C671.1,555.4,669.6,556.9,667.8,556.9z"/>
			</g>
		</g>
	</g>
</g>
</svg>
